<?xml version="1.0" encoding="UTF-8" standalone="no"?>
<!DOCTYPE svg PUBLIC "-//W3C//DTD SVG 1.1//EN"
 "http://www.w3.org/Graphics/SVG/1.1/DTD/svg11.dtd">
<!-- Generated by graphviz version 7.1.0 (0)
 -->
<!-- Title: cluster0complement.py Pages: 1 -->
<svg width="1986pt" height="1046pt"
 viewBox="0.00 0.00 1986.00 1046.00" xmlns="http://www.w3.org/2000/svg" xmlns:xlink="http://www.w3.org/1999/xlink">
<g id="graph0" class="graph" transform="scale(1 1) rotate(0) translate(4 1042)">
<title>cluster0complement.py</title>
<polygon fill="white" stroke="none" points="-4,4 -4,-1042 1982,-1042 1982,4 -4,4"/>
<text text-anchor="middle" x="989" y="-7.8" font-family="DejaVu Sans Mono" font-size="14.00">complement.py</text>
<g id="clust1" class="cluster">
<title>cluster_18</title>
<polygon fill="purple" stroke="purple" points="8,-446 8,-498 164,-498 164,-446 8,-446"/>
</g>
<g id="clust2" class="cluster">
<title>cluster_21</title>
<polygon fill="purple" stroke="purple" points="449,-362.5 449,-414.5 519,-414.5 519,-362.5 449,-362.5"/>
</g>
<g id="clust3" class="cluster">
<title>cluster_23</title>
<polygon fill="purple" stroke="purple" points="524,-226 524,-331 934,-331 934,-226 524,-226"/>
</g>
<g id="clust4" class="cluster">
<title>cluster_25</title>
<polygon fill="purple" stroke="purple" points="184,-226 184,-331 334,-331 334,-226 184,-226"/>
</g>
<g id="clust5" class="cluster">
<title>cluster0complement</title>
<polygon fill="none" stroke="black" points="950,-31 950,-1030 1581,-1030 1581,-31 950,-31"/>
<text text-anchor="middle" x="1265.5" y="-1014.8" font-family="DejaVu Sans Mono" font-size="14.00">complement</text>
</g>
<g id="clust6" class="cluster">
<title>cluster_KEY</title>
<polygon fill="none" stroke="black" points="1589,-529 1589,-877.5 1970,-877.5 1970,-529 1589,-529"/>
<text text-anchor="middle" x="1779.5" y="-862.3" font-family="DejaVu Sans Mono" font-size="14.00">KEY</text>
</g>
<!-- 1 -->
<g id="node1" class="node">
<title>1</title>
<polygon fill="#fffb81" stroke="black" points="432.5,-847.5 135.5,-847.5 135.5,-809.5 432.5,-809.5 432.5,-847.5"/>
<text text-anchor="start" x="143.5" y="-832.3" font-family="DejaVu Sans Mono" font-size="14.00">import sys</text>
<text text-anchor="middle" x="284" y="-817.3" font-family="DejaVu Sans Mono" font-size="14.00">def complement(seq: str) &#45;&gt;str:...</text>
</g>
<!-- 17 -->
<g id="node2" class="node">
<title>17</title>
<polygon fill="#ff6752" stroke="black" points="284,-641 71.85,-623 284,-605 496.15,-623 284,-641"/>
<text text-anchor="middle" x="284" y="-619.3" font-family="DejaVu Sans Mono" font-size="14.00">if __name__ == &#39;__main__&#39;:</text>
</g>
<!-- 1&#45;&gt;17 -->
<g id="edge17" class="edge">
<title>1&#45;&gt;17</title>
<path fill="none" stroke="black" d="M284,-809.08C284,-773.55 284,-695.31 284,-652.82"/>
<polygon fill="black" stroke="black" points="287.5,-652.88 284,-642.88 280.5,-652.88 287.5,-652.88"/>
</g>
<!-- 18 -->
<g id="node3" class="node">
<title>18</title>
<polygon fill="#fffb81" stroke="black" points="362.5,-574 205.5,-574 205.5,-536 362.5,-536 362.5,-574"/>
<text text-anchor="start" x="213.5" y="-558.8" font-family="DejaVu Sans Mono" font-size="14.00">import doctest</text>
<text text-anchor="middle" x="284" y="-543.8" font-family="DejaVu Sans Mono" font-size="14.00">doctest.testmod()</text>
</g>
<!-- 17&#45;&gt;18 -->
<g id="edge16" class="edge">
<title>17&#45;&gt;18</title>
<path fill="none" stroke="green" d="M284,-604.66C284,-598.83 284,-592.16 284,-585.67"/>
<polygon fill="green" stroke="green" points="287.5,-585.89 284,-575.89 280.5,-585.89 287.5,-585.89"/>
<text text-anchor="middle" x="375" y="-585.8" font-family="DejaVu Sans Mono" font-size="14.00">__name__ == &#39;__main__&#39;</text>
</g>
<!-- 20 -->
<g id="node4" class="node">
<title>20</title>
<polygon fill="#e552ff" stroke="#e552ff" points="156,-490 28,-490 28,-494 16,-494 16,-454 156,-454 156,-490"/>
<polyline fill="none" stroke="#e552ff" points="16,-490 28,-490"/>
<text text-anchor="middle" x="86" y="-468.3" font-family="DejaVu Sans Mono" font-size="14.00">doctest.testmod</text>
</g>
<!-- 18&#45;&gt;20 -->
<g id="edge1" class="edge">
<title>18&#45;&gt;20</title>
<path fill="none" stroke="black" stroke-dasharray="5,2" d="M239.07,-535.62C209.34,-523.46 170.23,-507.46 138.99,-494.68"/>
<polygon fill="black" stroke="black" points="140.7,-491.59 130.12,-491.05 138.05,-498.07 140.7,-491.59"/>
<text text-anchor="middle" x="223" y="-509.8" font-family="DejaVu Sans Mono" font-size="14.00">calls</text>
</g>
<!-- 21 -->
<g id="node5" class="node">
<title>21</title>
<polygon fill="#ff6752" stroke="black" points="484,-490 302.01,-472 484,-454 665.99,-472 484,-490"/>
<text text-anchor="middle" x="484" y="-468.3" font-family="DejaVu Sans Mono" font-size="14.00">if len(sys.argv) == 3:</text>
</g>
<!-- 18&#45;&gt;21 -->
<g id="edge15" class="edge">
<title>18&#45;&gt;21</title>
<path fill="none" stroke="black" d="M329.63,-535.52C362.36,-522.26 406.26,-504.48 438.88,-491.28"/>
<polygon fill="black" stroke="black" points="440.11,-494.55 448.07,-487.55 437.49,-488.06 440.11,-494.55"/>
</g>
<!-- 22 -->
<g id="node6" class="node">
<title>22</title>
<polygon fill="#e552ff" stroke="#e552ff" points="511,-406.5 469,-406.5 469,-410.5 457,-410.5 457,-370.5 511,-370.5 511,-406.5"/>
<polyline fill="none" stroke="#e552ff" points="457,-406.5 469,-406.5"/>
<text text-anchor="middle" x="484" y="-384.8" font-family="DejaVu Sans Mono" font-size="14.00">len</text>
</g>
<!-- 21&#45;&gt;22 -->
<g id="edge2" class="edge">
<title>21&#45;&gt;22</title>
<path fill="none" stroke="black" stroke-dasharray="5,2" d="M484,-453.72C484,-443.34 484,-429.89 484,-417.98"/>
<polygon fill="black" stroke="black" points="487.5,-418.27 484,-408.27 480.5,-418.27 487.5,-418.27"/>
<text text-anchor="middle" x="505" y="-426.8" font-family="DejaVu Sans Mono" font-size="14.00">calls</text>
</g>
<!-- 23 -->
<g id="node7" class="node">
<title>23</title>
<polygon fill="#fffb81" stroke="black" points="942,-415 562,-415 562,-362 942,-362 942,-415"/>
<text text-anchor="start" x="570" y="-399.8" font-family="DejaVu Sans Mono" font-size="14.00">seq_to_convert = finput.read()</text>
<text text-anchor="middle" x="752" y="-384.8" font-family="DejaVu Sans Mono" font-size="14.00">foutput.write(complement(seq_to_convert) + &#39;</text>
<text text-anchor="middle" x="752" y="-369.8" font-family="DejaVu Sans Mono" font-size="14.00">&#39;)</text>
</g>
<!-- 21&#45;&gt;23 -->
<g id="edge9" class="edge">
<title>21&#45;&gt;23</title>
<path fill="none" stroke="green" d="M518.38,-456.92C544.15,-446.69 580.43,-432.94 613,-423 618.07,-421.45 623.27,-419.93 628.53,-418.43"/>
<polygon fill="green" stroke="green" points="629.25,-421.87 637.95,-415.82 627.38,-415.12 629.25,-421.87"/>
<text text-anchor="middle" x="687.5" y="-426.8" font-family="DejaVu Sans Mono" font-size="14.00">len(sys.argv) == 3</text>
</g>
<!-- 25 -->
<g id="node14" class="node">
<title>25</title>
<polygon fill="#fffb81" stroke="black" points="406.5,-407.5 117.5,-407.5 117.5,-369.5 406.5,-369.5 406.5,-407.5"/>
<text text-anchor="start" x="125.5" y="-392.3" font-family="DejaVu Sans Mono" font-size="14.00">seq_to_convert = input()</text>
<text text-anchor="middle" x="262" y="-377.3" font-family="DejaVu Sans Mono" font-size="14.00">print(complement(seq_to_convert))</text>
</g>
<!-- 21&#45;&gt;25 -->
<g id="edge14" class="edge">
<title>21&#45;&gt;25</title>
<path fill="none" stroke="red" d="M391.79,-462.7C365.65,-457.84 337.84,-450.15 314,-438 303.28,-432.54 293.18,-424.2 284.78,-415.97"/>
<polygon fill="red" stroke="red" points="287.51,-413.75 278.05,-408.98 282.46,-418.61 287.51,-413.75"/>
<text text-anchor="middle" x="397" y="-426.8" font-family="DejaVu Sans Mono" font-size="14.00">(len(sys.argv) != 3)</text>
</g>
<!-- 29 -->
<g id="node8" class="node">
<title>29</title>
<polygon fill="#e552ff" stroke="#e552ff" points="800,-323 758,-323 758,-327 746,-327 746,-287 800,-287 800,-323"/>
<polyline fill="none" stroke="#e552ff" points="746,-323 758,-323"/>
<text text-anchor="middle" x="773" y="-301.3" font-family="DejaVu Sans Mono" font-size="14.00">open</text>
</g>
<!-- 23&#45;&gt;29 -->
<g id="edge3" class="edge">
<title>23&#45;&gt;29</title>
<path fill="none" stroke="black" stroke-dasharray="5,2" d="M758.64,-361.71C760.88,-353.02 763.39,-343.28 765.68,-334.4"/>
<polygon fill="black" stroke="black" points="769.04,-335.41 768.14,-324.85 762.26,-333.66 769.04,-335.41"/>
<text text-anchor="middle" x="785" y="-342.8" font-family="DejaVu Sans Mono" font-size="14.00">calls</text>
</g>
<!-- 30 -->
<g id="node9" class="node">
<title>30</title>
<polygon fill="#e552ff" stroke="#e552ff" points="925.5,-323 830.5,-323 830.5,-327 818.5,-327 818.5,-287 925.5,-287 925.5,-323"/>
<polyline fill="none" stroke="#e552ff" points="818.5,-323 830.5,-323"/>
<text text-anchor="middle" x="872" y="-301.3" font-family="DejaVu Sans Mono" font-size="14.00">finput.read</text>
</g>
<!-- 23&#45;&gt;30 -->
<g id="edge4" class="edge">
<title>23&#45;&gt;30</title>
<path fill="none" stroke="black" stroke-dasharray="5,2" d="M798.26,-361.54C802.27,-359.06 806.23,-356.53 810,-354 820.82,-346.74 832.21,-338.2 842.24,-330.35"/>
<polygon fill="black" stroke="black" points="844.16,-333.29 849.82,-324.33 839.81,-327.81 844.16,-333.29"/>
<text text-anchor="middle" x="850" y="-342.8" font-family="DejaVu Sans Mono" font-size="14.00">calls</text>
</g>
<!-- 31 -->
<g id="node10" class="node">
<title>31</title>
<polygon fill="#e552ff" stroke="#e552ff" points="586,-323 544,-323 544,-327 532,-327 532,-287 586,-287 586,-323"/>
<polyline fill="none" stroke="#e552ff" points="532,-323 544,-323"/>
<text text-anchor="middle" x="559" y="-301.3" font-family="DejaVu Sans Mono" font-size="14.00">open</text>
</g>
<!-- 23&#45;&gt;31 -->
<g id="edge5" class="edge">
<title>23&#45;&gt;31</title>
<path fill="none" stroke="black" stroke-dasharray="5,2" d="M666.16,-361.63C642.5,-353.17 617.24,-342.85 595,-331 594.09,-330.51 593.17,-330.01 592.26,-329.49"/>
<polygon fill="black" stroke="black" points="594.15,-326.55 583.8,-324.28 590.48,-332.51 594.15,-326.55"/>
<text text-anchor="middle" x="666" y="-342.8" font-family="DejaVu Sans Mono" font-size="14.00">calls</text>
</g>
<!-- 32 -->
<g id="node11" class="node">
<title>32</title>
<polygon fill="#e552ff" stroke="#e552ff" points="728,-323 616,-323 616,-327 604,-327 604,-287 728,-287 728,-323"/>
<polyline fill="none" stroke="#e552ff" points="604,-323 616,-323"/>
<text text-anchor="middle" x="666" y="-301.3" font-family="DejaVu Sans Mono" font-size="14.00">foutput.write</text>
</g>
<!-- 23&#45;&gt;32 -->
<g id="edge6" class="edge">
<title>23&#45;&gt;32</title>
<path fill="none" stroke="black" stroke-dasharray="5,2" d="M723.22,-361.64C720.43,-359.07 717.65,-356.5 715,-354 707.23,-346.69 698.9,-338.61 691.35,-331.21"/>
<polygon fill="black" stroke="black" points="694.19,-329.09 684.61,-324.56 689.27,-334.07 694.19,-329.09"/>
<text text-anchor="middle" x="736" y="-342.8" font-family="DejaVu Sans Mono" font-size="14.00">calls</text>
</g>
<!-- 33 -->
<g id="node12" class="node">
<title>33</title>
<polygon fill="#e552ff" stroke="#e552ff" points="715.5,-270 628.5,-270 628.5,-274 616.5,-274 616.5,-234 715.5,-234 715.5,-270"/>
<polyline fill="none" stroke="#e552ff" points="616.5,-270 628.5,-270"/>
<text text-anchor="middle" x="666" y="-248.3" font-family="DejaVu Sans Mono" font-size="14.00">complement</text>
</g>
<!-- 32&#45;&gt;33 -->
<g id="edge7" class="edge">
<title>32&#45;&gt;33</title>
<path fill="none" stroke="black" d="M666,-286.73C666,-285.07 666,-283.36 666,-281.62"/>
<polygon fill="black" stroke="black" points="669.5,-281.76 666,-271.76 662.5,-281.76 669.5,-281.76"/>
</g>
<!-- 23_input -->
<g id="node13" class="node">
<title>23_input</title>
<polygon fill="#afeeee" stroke="black" points="887.93,-490 725.78,-490 684.07,-454 846.22,-454 887.93,-490"/>
<text text-anchor="middle" x="786" y="-468.3" font-family="DejaVu Sans Mono" font-size="14.00">finput.read</text>
</g>
<!-- 23_input&#45;&gt;23 -->
<g id="edge8" class="edge">
<title>23_input&#45;&gt;23</title>
<path fill="none" stroke="black" d="M778.79,-453.72C775.42,-445.64 771.27,-435.69 767.25,-426.06"/>
<polygon fill="black" stroke="black" points="770.48,-424.71 763.4,-416.83 764.02,-427.41 770.48,-424.71"/>
</g>
<!-- 26 -->
<g id="node15" class="node">
<title>26</title>
<polygon fill="#e552ff" stroke="#e552ff" points="250,-323 204,-323 204,-327 192,-327 192,-287 250,-287 250,-323"/>
<polyline fill="none" stroke="#e552ff" points="192,-323 204,-323"/>
<text text-anchor="middle" x="221" y="-301.3" font-family="DejaVu Sans Mono" font-size="14.00">input</text>
</g>
<!-- 25&#45;&gt;26 -->
<g id="edge10" class="edge">
<title>25&#45;&gt;26</title>
<path fill="none" stroke="black" stroke-dasharray="5,2" d="M241.67,-369.04C237.61,-364.48 233.76,-359.35 231,-354 227.85,-347.89 225.69,-340.86 224.22,-334.1"/>
<polygon fill="black" stroke="black" points="227.74,-333.93 222.57,-324.68 220.84,-335.13 227.74,-333.93"/>
<text text-anchor="middle" x="252" y="-342.8" font-family="DejaVu Sans Mono" font-size="14.00">calls</text>
</g>
<!-- 27 -->
<g id="node16" class="node">
<title>27</title>
<polygon fill="#e552ff" stroke="#e552ff" points="326,-323 280,-323 280,-327 268,-327 268,-287 326,-287 326,-323"/>
<polyline fill="none" stroke="#e552ff" points="268,-323 280,-323"/>
<text text-anchor="middle" x="297" y="-301.3" font-family="DejaVu Sans Mono" font-size="14.00">print</text>
</g>
<!-- 25&#45;&gt;27 -->
<g id="edge11" class="edge">
<title>25&#45;&gt;27</title>
<path fill="none" stroke="black" stroke-dasharray="5,2" d="M269.94,-369.01C274.41,-358.61 280.06,-345.44 285.05,-333.82"/>
<polygon fill="black" stroke="black" points="288.24,-335.27 288.97,-324.7 281.81,-332.5 288.24,-335.27"/>
<text text-anchor="middle" x="303" y="-342.8" font-family="DejaVu Sans Mono" font-size="14.00">calls</text>
</g>
<!-- 28 -->
<g id="node17" class="node">
<title>28</title>
<polygon fill="#e552ff" stroke="#e552ff" points="325.5,-270 238.5,-270 238.5,-274 226.5,-274 226.5,-234 325.5,-234 325.5,-270"/>
<polyline fill="none" stroke="#e552ff" points="226.5,-270 238.5,-270"/>
<text text-anchor="middle" x="276" y="-248.3" font-family="DejaVu Sans Mono" font-size="14.00">complement</text>
</g>
<!-- 27&#45;&gt;28 -->
<g id="edge12" class="edge">
<title>27&#45;&gt;28</title>
<path fill="none" stroke="black" d="M289.89,-286.73C289.1,-284.82 288.29,-282.84 287.47,-280.84"/>
<polygon fill="black" stroke="black" points="290.72,-279.56 283.68,-271.65 284.25,-282.23 290.72,-279.56"/>
</g>
<!-- 25_input -->
<g id="node18" class="node">
<title>25_input</title>
<polygon fill="#afeeee" stroke="black" points="284.04,-490 196.48,-490 173.96,-454 261.52,-454 284.04,-490"/>
<text text-anchor="middle" x="229" y="-468.3" font-family="DejaVu Sans Mono" font-size="14.00">input</text>
</g>
<!-- 25_input&#45;&gt;25 -->
<g id="edge13" class="edge">
<title>25_input&#45;&gt;25</title>
<path fill="none" stroke="black" d="M236,-453.72C240.17,-443.41 245.57,-430.07 250.37,-418.22"/>
<polygon fill="black" stroke="black" points="253.48,-419.88 253.98,-409.29 246.99,-417.25 253.48,-419.88"/>
</g>
<!-- 3 -->
<g id="node19" class="node">
<title>3</title>
<polygon fill="#fffb81" stroke="black" points="1573,-999 995,-999 995,-658 1573,-658 1573,-999"/>
<text text-anchor="start" x="1003" y="-983.8" font-family="DejaVu Sans Mono" font-size="14.00">&quot;&quot;&quot;</text>
<text text-anchor="start" x="1003" y="-968.8" font-family="DejaVu Sans Mono" font-size="14.00"> &#160;&#160;&#160;Purpose: &#160;&#160;&#160;&#160;&#160;&#160;&#160;Converts a DNA sequence string to its complement</text>
<text text-anchor="start" x="1003" y="-953.8" font-family="DejaVu Sans Mono" font-size="14.00"> &#160;&#160;&#160;Parameters: &#160;&#160;&#160;&#160;Sequence of DNA as a python str</text>
<text text-anchor="start" x="1003" y="-938.8" font-family="DejaVu Sans Mono" font-size="14.00"> &#160;&#160;&#160;User Input: &#160;&#160;&#160;&#160;No</text>
<text text-anchor="start" x="1003" y="-923.8" font-family="DejaVu Sans Mono" font-size="14.00"> &#160;&#160;&#160;Prints: &#160;&#160;&#160;&#160;&#160;&#160;&#160;&#160;Nothing</text>
<text text-anchor="start" x="1003" y="-908.8" font-family="DejaVu Sans Mono" font-size="14.00"> &#160;&#160;&#160;Returns: &#160;&#160;&#160;&#160;&#160;&#160;&#160;Result new string of DNA</text>
<text text-anchor="start" x="1003" y="-893.8" font-family="DejaVu Sans Mono" font-size="14.00"> &#160;&#160;&#160;Modifies: &#160;&#160;&#160;&#160;&#160;&#160;Nothing</text>
<text text-anchor="start" x="1003" y="-878.8" font-family="DejaVu Sans Mono" font-size="14.00"> &#160;&#160;&#160;Calls: &#160;&#160;&#160;&#160;&#160;&#160;&#160;&#160;&#160;Basic python only</text>
<text text-anchor="start" x="1003" y="-863.8" font-family="DejaVu Sans Mono" font-size="14.00"> &#160;&#160;&#160;Tests: &#160;&#160;&#160;&#160;&#160;&#160;&#160;&#160;&#160;./unit_tests/*</text>
<text text-anchor="start" x="1003" y="-848.8" font-family="DejaVu Sans Mono" font-size="14.00"> &#160;&#160;&#160;Status: &#160;&#160;&#160;&#160;&#160;&#160;&#160;&#160;Done!</text>
<text text-anchor="start" x="1003" y="-817.8" font-family="DejaVu Sans Mono" font-size="14.00"> &#160;&#160;&#160;Usage illustrated via some simple doctests:</text>
<text text-anchor="start" x="1003" y="-802.8" font-family="DejaVu Sans Mono" font-size="14.00"> &#160;&#160;&#160;&gt;&gt;&gt; complement(&quot;GATTACA&quot;)</text>
<text text-anchor="start" x="1003" y="-787.8" font-family="DejaVu Sans Mono" font-size="14.00"> &#160;&#160;&#160;&#39;CTAATGT&#39;</text>
<text text-anchor="start" x="1003" y="-756.8" font-family="DejaVu Sans Mono" font-size="14.00"> &#160;&#160;&#160;&gt;&gt;&gt; complement(&quot;CAT&quot;)</text>
<text text-anchor="start" x="1003" y="-741.8" font-family="DejaVu Sans Mono" font-size="14.00"> &#160;&#160;&#160;&#39;GTA&#39;</text>
<text text-anchor="start" x="1003" y="-710.8" font-family="DejaVu Sans Mono" font-size="14.00"> &#160;&#160;&#160;&gt;&gt;&gt; print(&quot;Unlike other frameworks, doctest does stdout easily&quot;)</text>
<text text-anchor="start" x="1003" y="-695.8" font-family="DejaVu Sans Mono" font-size="14.00"> &#160;&#160;&#160;Unlike other frameworks, doctest does stdout easily</text>
<text text-anchor="start" x="1003" y="-680.8" font-family="DejaVu Sans Mono" font-size="14.00"> &#160;&#160;&#160;&quot;&quot;&quot;</text>
<text text-anchor="middle" x="1284" y="-665.8" font-family="DejaVu Sans Mono" font-size="14.00">complement = &#39;&#39;</text>
</g>
<!-- 4 -->
<g id="node20" class="node">
<title>4</title>
<polygon fill="#ffbe52" stroke="black" points="1494.65,-623 1438.82,-641 1327.18,-641 1271.35,-623 1327.18,-605 1438.82,-605 1494.65,-623"/>
<text text-anchor="middle" x="1383" y="-619.3" font-family="DejaVu Sans Mono" font-size="14.00">for base in seq:</text>
</g>
<!-- 3&#45;&gt;4 -->
<g id="edge32" class="edge">
<title>3&#45;&gt;4</title>
<path fill="none" stroke="black" d="M1366.65,-657.6C1367.68,-655.5 1368.66,-653.47 1369.61,-651.52"/>
<polygon fill="black" stroke="black" points="1372.71,-653.16 1373.93,-642.63 1366.41,-650.1 1372.71,-653.16"/>
</g>
<!-- 5 -->
<g id="node21" class="node">
<title>5</title>
<polygon fill="#ff6752" stroke="black" points="1087,-573 958.14,-555 1087,-537 1215.86,-555 1087,-573"/>
<text text-anchor="middle" x="1087" y="-551.3" font-family="DejaVu Sans Mono" font-size="14.00">if base == &#39;G&#39;:</text>
</g>
<!-- 4&#45;&gt;5 -->
<g id="edge30" class="edge">
<title>4&#45;&gt;5</title>
<path fill="none" stroke="green" d="M1318.04,-607.52C1266.73,-596.07 1195.73,-580.24 1146.02,-569.16"/>
<polygon fill="green" stroke="green" points="1146.81,-565.75 1136.29,-566.99 1145.29,-572.58 1146.81,-565.75"/>
<text text-anchor="middle" x="1282.5" y="-585.8" font-family="DejaVu Sans Mono" font-size="14.00">seq</text>
</g>
<!-- 6 -->
<g id="node29" class="node">
<title>6</title>
<polygon fill="#98fb98" stroke="black" points="1532.72,-573 1294.55,-573 1233.28,-537 1471.45,-537 1532.72,-573"/>
<text text-anchor="middle" x="1383" y="-551.3" font-family="DejaVu Sans Mono" font-size="14.00">return complement</text>
</g>
<!-- 4&#45;&gt;6 -->
<g id="edge31" class="edge">
<title>4&#45;&gt;6</title>
<path fill="none" stroke="green" d="M1383,-604.66C1383,-598.57 1383,-591.55 1383,-584.78"/>
<polygon fill="green" stroke="green" points="1386.5,-584.97 1383,-574.97 1379.5,-584.97 1386.5,-584.97"/>
</g>
<!-- 7 -->
<g id="node22" class="node">
<title>7</title>
<polygon fill="#fffb81" stroke="black" points="1214,-490 958,-490 958,-454 1214,-454 1214,-490"/>
<text text-anchor="middle" x="1086" y="-468.3" font-family="DejaVu Sans Mono" font-size="14.00">complement = complement + &#39;C&#39;</text>
</g>
<!-- 5&#45;&gt;7 -->
<g id="edge28" class="edge">
<title>5&#45;&gt;7</title>
<path fill="none" stroke="green" d="M1086.79,-536.82C1086.66,-526.69 1086.5,-513.6 1086.36,-501.92"/>
<polygon fill="green" stroke="green" points="1089.86,-501.9 1086.23,-491.95 1082.86,-501.99 1089.86,-501.9"/>
<text text-anchor="middle" x="1131.5" y="-509.8" font-family="DejaVu Sans Mono" font-size="14.00">base == &#39;G&#39;</text>
</g>
<!-- 8 -->
<g id="node23" class="node">
<title>8</title>
<polygon fill="#ff6752" stroke="black" points="1208,-406.5 1079.14,-388.5 1208,-370.5 1336.86,-388.5 1208,-406.5"/>
<text text-anchor="middle" x="1208" y="-384.8" font-family="DejaVu Sans Mono" font-size="14.00">if base == &#39;C&#39;:</text>
</g>
<!-- 5&#45;&gt;8 -->
<g id="edge29" class="edge">
<title>5&#45;&gt;8</title>
<path fill="none" stroke="red" d="M1149.56,-545.32C1177.55,-537.85 1207.64,-523.92 1223,-498 1237.83,-472.97 1229.58,-439.12 1220.54,-415.92"/>
<polygon fill="red" stroke="red" points="1223.83,-414.72 1216.72,-406.86 1217.38,-417.44 1223.83,-414.72"/>
<text text-anchor="middle" x="1285" y="-468.3" font-family="DejaVu Sans Mono" font-size="14.00">(base != &#39;G&#39;)</text>
</g>
<!-- 7&#45;&gt;8 -->
<g id="edge27" class="edge">
<title>7&#45;&gt;8</title>
<path fill="none" stroke="black" d="M1112.17,-453.52C1131.19,-440.81 1156.99,-423.58 1177.03,-410.19"/>
<polygon fill="black" stroke="black" points="1178.72,-413.27 1185.09,-404.8 1174.83,-407.45 1178.72,-413.27"/>
</g>
<!-- 9 -->
<g id="node24" class="node">
<title>9</title>
<polygon fill="#fffb81" stroke="black" points="1255,-323 999,-323 999,-287 1255,-287 1255,-323"/>
<text text-anchor="middle" x="1127" y="-301.3" font-family="DejaVu Sans Mono" font-size="14.00">complement = complement + &#39;G&#39;</text>
</g>
<!-- 8&#45;&gt;9 -->
<g id="edge25" class="edge">
<title>8&#45;&gt;9</title>
<path fill="none" stroke="green" d="M1192.76,-372.17C1181.3,-360.64 1165.35,-344.58 1152.02,-331.18"/>
<polygon fill="green" stroke="green" points="1154.73,-328.93 1145.2,-324.31 1149.76,-333.87 1154.73,-328.93"/>
<text text-anchor="middle" x="1217.5" y="-342.8" font-family="DejaVu Sans Mono" font-size="14.00">base == &#39;C&#39;</text>
</g>
<!-- 10 -->
<g id="node25" class="node">
<title>10</title>
<polygon fill="#ff6752" stroke="black" points="1242,-270 1113.14,-252 1242,-234 1370.86,-252 1242,-270"/>
<text text-anchor="middle" x="1242" y="-248.3" font-family="DejaVu Sans Mono" font-size="14.00">if base == &#39;T&#39;:</text>
</g>
<!-- 8&#45;&gt;10 -->
<g id="edge26" class="edge">
<title>8&#45;&gt;10</title>
<path fill="none" stroke="red" d="M1243.52,-375.07C1252.79,-370.02 1261.67,-363.16 1267,-354 1272.26,-344.96 1277.88,-329.47 1264,-287 1263.05,-284.09 1261.79,-281.19 1260.35,-278.38"/>
<polygon fill="red" stroke="red" points="1263.49,-276.82 1255.36,-270.02 1257.48,-280.4 1263.49,-276.82"/>
<text text-anchor="middle" x="1326" y="-301.3" font-family="DejaVu Sans Mono" font-size="14.00">(base != &#39;C&#39;)</text>
</g>
<!-- 9&#45;&gt;10 -->
<g id="edge24" class="edge">
<title>9&#45;&gt;10</title>
<path fill="none" stroke="black" d="M1166.25,-286.59C1177.71,-281.51 1190.25,-275.95 1201.77,-270.84"/>
<polygon fill="black" stroke="black" points="1202.89,-274.17 1210.61,-266.92 1200.05,-267.77 1202.89,-274.17"/>
</g>
<!-- 11 -->
<g id="node26" class="node">
<title>11</title>
<polygon fill="#fffb81" stroke="black" points="1295,-195 1039,-195 1039,-159 1295,-159 1295,-195"/>
<text text-anchor="middle" x="1167" y="-173.3" font-family="DejaVu Sans Mono" font-size="14.00">complement = complement + &#39;A&#39;</text>
</g>
<!-- 10&#45;&gt;11 -->
<g id="edge22" class="edge">
<title>10&#45;&gt;11</title>
<path fill="none" stroke="green" d="M1226.46,-235.87C1216.82,-226.49 1204.19,-214.19 1193.05,-203.35"/>
<polygon fill="green" stroke="green" points="1195.58,-200.94 1185.98,-196.47 1190.7,-205.95 1195.58,-200.94"/>
<text text-anchor="middle" x="1251.5" y="-206.8" font-family="DejaVu Sans Mono" font-size="14.00">base == &#39;T&#39;</text>
</g>
<!-- 12 -->
<g id="node27" class="node">
<title>12</title>
<polygon fill="#ff6752" stroke="black" points="1378,-142 1249.14,-124 1378,-106 1506.86,-124 1378,-142"/>
<text text-anchor="middle" x="1378" y="-120.3" font-family="DejaVu Sans Mono" font-size="14.00">if base == &#39;A&#39;:</text>
</g>
<!-- 10&#45;&gt;12 -->
<g id="edge23" class="edge">
<title>10&#45;&gt;12</title>
<path fill="none" stroke="red" d="M1271.5,-237.63C1281.46,-232.33 1292.26,-225.66 1301,-218 1325.59,-196.43 1323.79,-183.9 1345,-159 1347.98,-155.51 1351.22,-151.92 1354.48,-148.45"/>
<polygon fill="red" stroke="red" points="1356.98,-150.9 1361.4,-141.26 1351.94,-146.04 1356.98,-150.9"/>
<text text-anchor="middle" x="1399" y="-173.3" font-family="DejaVu Sans Mono" font-size="14.00">(base != &#39;T&#39;)</text>
</g>
<!-- 11&#45;&gt;12 -->
<g id="edge21" class="edge">
<title>11&#45;&gt;12</title>
<path fill="none" stroke="black" d="M1239.32,-158.52C1266.13,-152.04 1296.12,-144.79 1321.34,-138.69"/>
<polygon fill="black" stroke="black" points="1321.83,-142.18 1330.73,-136.43 1320.18,-135.37 1321.83,-142.18"/>
</g>
<!-- 12&#45;&gt;4 -->
<g id="edge20" class="edge">
<title>12&#45;&gt;4</title>
<path fill="none" stroke="red" d="M1421.75,-136.15C1440.42,-143.79 1458,-156.23 1458,-176 1458,-306 1458,-306 1458,-306 1458,-327.34 1449.63,-334.83 1459,-354 1482.39,-401.83 1552,-376.26 1552,-429.5 1552,-556 1552,-556 1552,-556 1552,-565.15 1549.13,-568.26 1542,-574 1521.56,-590.47 1495.56,-601.3 1470.53,-608.41"/>
<polygon fill="red" stroke="red" points="1469.73,-605 1460.96,-610.95 1471.53,-611.77 1469.73,-605"/>
<text text-anchor="middle" x="1513" y="-342.8" font-family="DejaVu Sans Mono" font-size="14.00">(base != &#39;A&#39;)</text>
</g>
<!-- 13 -->
<g id="node28" class="node">
<title>13</title>
<polygon fill="#fffb81" stroke="black" points="1556,-75 1300,-75 1300,-39 1556,-39 1556,-75"/>
<text text-anchor="middle" x="1428" y="-53.3" font-family="DejaVu Sans Mono" font-size="14.00">complement = complement + &#39;T&#39;</text>
</g>
<!-- 12&#45;&gt;13 -->
<g id="edge19" class="edge">
<title>12&#45;&gt;13</title>
<path fill="none" stroke="green" d="M1390.1,-107.27C1395.36,-100.43 1401.67,-92.23 1407.62,-84.49"/>
<polygon fill="green" stroke="green" points="1410.36,-86.68 1413.68,-76.62 1404.81,-82.41 1410.36,-86.68"/>
<text text-anchor="middle" x="1452.5" y="-86.8" font-family="DejaVu Sans Mono" font-size="14.00">base == &#39;A&#39;</text>
</g>
<!-- 13&#45;&gt;4 -->
<g id="edge18" class="edge">
<title>13&#45;&gt;4</title>
<path fill="none" stroke="black" d="M1535.66,-75.4C1556.5,-85.04 1572,-99.96 1572,-123 1572,-556 1572,-556 1572,-556 1572,-585.43 1547.09,-585.49 1520,-597 1506.21,-602.86 1491.07,-607.35 1476.05,-610.78"/>
<polygon fill="black" stroke="black" points="1475.68,-607.28 1466.62,-612.79 1477.13,-614.13 1475.68,-607.28"/>
</g>
<!-- input -->
<g id="node30" class="node">
<title>input</title>
<polygon fill="#afeeee" stroke="black" points="1962.04,-641 1874.48,-641 1851.96,-605 1939.52,-605 1962.04,-641"/>
<text text-anchor="middle" x="1907" y="-619.3" font-family="DejaVu Sans Mono" font-size="14.00">input</text>
</g>
<!-- call -->
<g id="node35" class="node">
<title>call</title>
<polygon fill="#e552ff" stroke="black" points="1934,-573 1892,-573 1892,-577 1880,-577 1880,-537 1934,-537 1934,-573"/>
<polyline fill="none" stroke="black" points="1880,-573 1892,-573"/>
<text text-anchor="middle" x="1907" y="-551.3" font-family="DejaVu Sans Mono" font-size="14.00">call</text>
</g>
<!-- input&#45;&gt;call -->
<!-- default -->
<g id="node31" class="node">
<title>default</title>
<polygon fill="#fffb81" stroke="black" points="1808,-573 1734,-573 1734,-537 1808,-537 1808,-573"/>
<text text-anchor="middle" x="1771" y="-551.3" font-family="DejaVu Sans Mono" font-size="14.00">default</text>
</g>
<!-- if -->
<g id="node32" class="node">
<title>if</title>
<polygon fill="#ff6752" stroke="black" points="1907,-846.5 1876.83,-828.5 1907,-810.5 1937.17,-828.5 1907,-846.5"/>
<text text-anchor="middle" x="1907" y="-824.8" font-family="DejaVu Sans Mono" font-size="14.00">if</text>
</g>
<!-- if&#45;&gt;input -->
<!-- for -->
<g id="node33" class="node">
<title>for</title>
<polygon fill="#ffbe52" stroke="black" points="1857.54,-828.5 1842.27,-846.5 1811.73,-846.5 1796.46,-828.5 1811.73,-810.5 1842.27,-810.5 1857.54,-828.5"/>
<text text-anchor="middle" x="1827" y="-824.8" font-family="DejaVu Sans Mono" font-size="14.00">for</text>
</g>
<!-- return -->
<g id="node36" class="node">
<title>return</title>
<polygon fill="#98fb98" stroke="black" points="1833.79,-641 1733.91,-641 1708.21,-605 1808.09,-605 1833.79,-641"/>
<text text-anchor="middle" x="1771" y="-619.3" font-family="DejaVu Sans Mono" font-size="14.00">return</text>
</g>
<!-- for&#45;&gt;return -->
<!-- while -->
<g id="node34" class="node">
<title>while</title>
<polygon fill="#ffbe52" stroke="black" points="1778.56,-828.5 1756.78,-846.5 1713.22,-846.5 1691.44,-828.5 1713.22,-810.5 1756.78,-810.5 1778.56,-828.5"/>
<text text-anchor="middle" x="1735" y="-824.8" font-family="DejaVu Sans Mono" font-size="14.00">while</text>
</g>
<!-- return&#45;&gt;default -->
<!-- try -->
<g id="node37" class="node">
<title>try</title>
<polygon fill="orange" stroke="black" points="1636,-846.5 1598.13,-828.5 1636,-810.5 1673.87,-828.5 1636,-846.5"/>
<polyline fill="none" stroke="black" points="1608.97,-833.65 1608.97,-823.35"/>
<polyline fill="none" stroke="black" points="1625.16,-815.65 1646.84,-815.65"/>
<polyline fill="none" stroke="black" points="1663.03,-823.35 1663.03,-833.65"/>
<polyline fill="none" stroke="black" points="1646.84,-841.35 1625.16,-841.35"/>
<text text-anchor="middle" x="1636" y="-824.8" font-family="DejaVu Sans Mono" font-size="14.00">try</text>
</g>
<!-- raise -->
<g id="node38" class="node">
<title>raise</title>
<polygon fill="#98fb98" stroke="black" points="1690.69,-628.56 1644,-641 1597.31,-628.56 1597.35,-608.44 1690.65,-608.44 1690.69,-628.56"/>
<text text-anchor="middle" x="1644" y="-619.3" font-family="DejaVu Sans Mono" font-size="14.00">raise</text>
</g>
<!-- try&#45;&gt;raise -->
</g>
</svg>
